<?xml version="1.0" encoding="utf-8"?>
<!-- Generator: Adobe Illustrator 24.3.0, SVG Export Plug-In . SVG Version: 6.00 Build 0)  -->
<svg version="1.1" id="Layer_1" xmlns="http://www.w3.org/2000/svg" xmlns:xlink="http://www.w3.org/1999/xlink" x="0px" y="0px"
	 viewBox="0 0 100 101" style="enable-background:new 0 0 100 101;" xml:space="preserve">
<g>
	<path d="M95.8,87.8L68.5,60.6c-0.8-0.8-1.9-1.2-3-1.2c-1.1,0-2.1,0.4-2.9,1.2L49.9,47.7c4.2-4.7,6.8-10.9,6.8-17.7
		c0-14.6-11.9-26.5-26.5-26.5S3.5,15.4,3.5,30.1s11.9,26.5,26.5,26.5c6.8,0,13-2.6,17.7-6.8l12.8,12.8c-0.8,0.8-1.2,1.8-1.2,2.9
		c0,1.1,0.4,2.2,1.2,3l27.3,27.3c0.8,0.8,1.9,1.2,3,1.2c1.1,0,2.2-0.4,3-1.2l2-2c0.8-0.8,1.2-1.9,1.2-3
		C97.1,89.7,96.6,88.6,95.8,87.8z M6.5,30.1c0-13,10.6-23.5,23.5-23.5s23.5,10.6,23.5,23.5c0,8.5-4.6,16-11.4,20.2v-9
		c0-6.9-5.6-12.5-12.5-12.5s-12.5,5.6-12.5,12.5v8.6C10.8,45.7,6.5,38.4,6.5,30.1z M20.3,51.5V41.2c0-5.2,4.2-9.5,9.4-9.5
		s9.5,4.2,9.5,9.5v10.5c-2.8,1.2-5.9,1.8-9.1,1.8C26.6,53.6,23.3,52.8,20.3,51.5z M93.7,91.7L93.7,91.7l-2,2c-0.5,0.5-1.3,0.5-1.8,0
		L62.7,66.4c-0.5-0.5-0.5-1.3,0-1.8l2-2c0.2-0.2,0.6-0.4,0.9-0.4s0.6,0.1,0.9,0.4L93.7,90c0.2,0.2,0.4,0.5,0.4,0.9
		C94.1,91.2,93.9,91.5,93.7,91.7z"/>
	<path d="M29.8,27c4.4,0,8-3.6,8-8s-3.6-8-8-8s-8,3.6-8,8S25.4,27,29.8,27z M29.8,14c2.8,0,5,2.2,5,5s-2.2,5-5,5s-5-2.2-5-5
		S27,14,29.8,14z"/>
</g>
</svg>
