<?xml version="1.0" encoding="utf-8"?>
<!-- Generator: Adobe Illustrator 24.3.0, SVG Export Plug-In . SVG Version: 6.00 Build 0)  -->
<svg version="1.1" id="Layer_1" xmlns="http://www.w3.org/2000/svg" xmlns:xlink="http://www.w3.org/1999/xlink" x="0px" y="0px"
	 viewBox="0 0 100 103" style="enable-background:new 0 0 100 103;" xml:space="preserve">
<path d="M84.8,30.1L90.8,19c0.2-0.5,0.2-1,0-1.5c-0.3-0.5-0.8-0.7-1.3-0.7H74.9V8.6c0-0.8-0.7-1.5-1.5-1.5H51.1v-2
	c0-0.8-0.7-1.5-1.5-1.5s-1.5,0.7-1.5,1.5v3.5v23.7v18.7H32.7c-2.7,0-5,2.2-5,5v3.6h-3.2v-3.2c0-0.8-0.7-1.5-1.5-1.5H10.5
	c-0.8,0-1.5,0.7-1.5,1.5v34.4c0,0.8,0.7,1.5,1.5,1.5H23c0.8,0,1.5-0.7,1.5-1.5v-2.8h3.2v3.6c0,2.7,2.2,4.9,5,4.9h21.2h0.7h14.5
	c3.2,0,5.7-2.6,5.7-5.7c0-1.2-0.4-2.3-1-3.2c2.1-0.8,3.6-2.9,3.6-5.3v-0.1c0-1.2-0.3-2.2-0.9-3.1c2.1-0.8,3.6-2.9,3.6-5.3v-0.1
	c0-2.4-1.5-4.4-3.5-5.3c0.6-0.9,0.9-2,0.9-3.1v-0.1c0-3.1-2.6-5.7-5.7-5.7H59.6v-2.7c0-2.7-1.8-4.9-4.3-5.5
	c-0.2-0.1-0.5-0.2-0.7-0.2h-3.5V33.8h13.1V42c0,0.8,0.7,1.5,1.5,1.5h23.7c0.5,0,1-0.3,1.3-0.7s0.3-1,0-1.5L84.8,30.1z M21.5,89.2H12
	V57.8h9.6V89.2z M69.1,93.4H54.6h-0.7c-1.5,0-2.7-1.2-2.7-2.7c0-1.5,1.2-2.7,2.7-2.7h15.2c1.5,0,2.7,1.2,2.7,2.7
	C71.8,92.2,70.6,93.4,69.1,93.4z M74.4,82.2c0,1.5-1.2,2.7-2.7,2.7H53.8c-1.5,0-2.7-1.2-2.7-2.7v-0.1c0-1.5,1.2-2.7,2.7-2.7h17.9
	c1.5,0,2.7,1.2,2.7,2.7C74.4,82.1,74.4,82.2,74.4,82.2z M77,73.7c0,1.5-1.2,2.7-2.7,2.7H58.9c0.4-0.8,0.7-1.7,0.7-2.7v-2.8h12.1h2.6
	c1.5,0,2.7,1.2,2.7,2.7L77,73.7L77,73.7z M71.7,62.4c1.5,0,2.7,1.2,2.7,2.7v0.1c0,1.5-1.2,2.7-2.7,2.7H59.6v-5.5H71.7z M56.6,73.7
	c0,1.5-1.2,2.7-2.7,2.7h-0.1c-1.5,0-2.7-1.2-2.7-2.7V60.9c0-0.8-0.7-1.5-1.5-1.5s-1.5,0.7-1.5,1.5c0,6.6-5.4,12-12,12
	c-0.8,0-1.5,0.7-1.5,1.5s0.7,1.5,1.5,1.5c4.9,0,9.3-2.4,12-6v3.8c0,1.7,0.7,3.2,1.9,4.2c-1.1,1-1.9,2.5-1.9,4.2v0.1
	c0,1.7,0.8,3.2,1.9,4.2c-1.2,1.1-1.9,2.6-1.9,4.3c0,1,0.2,1.9,0.7,2.7H32.7c-1.1,0-2-0.9-2-1.9v-6.6h-6.2V62.5h6.2v-6.6
	c0-1.1,0.9-2,2-2h21.2c1.5,0,2.7,1.2,2.7,2.7V73.7z M51.1,10.1h20.7v20.7H51.1V10.1z M67.3,40.5v-6.7h6.1c0.8,0,1.5-0.7,1.5-1.5
	V19.7H87l-5.2,9.6c-0.2,0.5-0.2,1,0,1.4l5.2,9.6H67.3z"/>
</svg>
