<?xml version="1.0" encoding="utf-8"?>
<!-- Generator: Adobe Illustrator 24.3.0, SVG Export Plug-In . SVG Version: 6.00 Build 0)  -->
<svg version="1.1" id="Layer_1" xmlns="http://www.w3.org/2000/svg" xmlns:xlink="http://www.w3.org/1999/xlink" x="0px" y="0px"
	 viewBox="0 0 100 102.7" style="enable-background:new 0 0 100 102.7;" xml:space="preserve">
<g>
	<path d="M58.1,16.2c-0.7-0.5-1.6-0.4-2.1,0.2l-8.9,11.1l-3-3.8c-0.5-0.6-1.5-0.8-2.1-0.2s-0.8,1.5-0.2,2.1l4.2,5.3
		c0.3,0.4,0.7,0.6,1.2,0.6s0.9-0.2,1.2-0.6l10-12.5C58.8,17.7,58.7,16.8,58.1,16.2z"/>
	<path d="M50,3.9c-10.9,0-19.8,8.9-19.8,19.8S39.1,43.5,50,43.5s19.8-8.9,19.8-19.8C69.8,12.8,60.9,3.9,50,3.9z M50,40.5
		c-9.2,0-16.8-7.5-16.8-16.8S40.8,6.9,50,6.9s16.8,7.5,16.8,16.8C66.8,32.9,59.2,40.5,50,40.5z"/>
	<path d="M19.3,67.8c4.4,0,8-3.6,8-8s-3.6-8-8-8c-4.4,0-8,3.6-8,8S14.9,67.8,19.3,67.8z M19.3,54.9c2.7,0,5,2.2,5,5s-2.2,5-5,5
		s-5-2.2-5-5S16.5,54.9,19.3,54.9z"/>
	<path d="M19.3,71.7c-6.8,0-12.4,5.6-12.4,12.4V95c0,0.8,0.7,1.5,1.5,1.5s1.5-0.7,1.5-1.5V84.1c0-5.2,4.2-9.4,9.4-9.4
		s9.4,4.2,9.4,9.4V95c0,0.8,0.7,1.5,1.5,1.5s1.5-0.7,1.5-1.5V84.1C31.7,77.3,26.1,71.7,19.3,71.7z"/>
	<path d="M80.7,67.8c4.4,0,8-3.6,8-8s-3.6-8-8-8c-4.4,0-8,3.6-8,8S76.3,67.8,80.7,67.8z M80.7,54.9c2.7,0,5,2.2,5,5s-2.2,5-5,5
		s-5-2.2-5-5S78,54.9,80.7,54.9z"/>
	<path d="M80.7,71.7c-6.8,0-12.4,5.6-12.4,12.4V95c0,0.8,0.7,1.5,1.5,1.5s1.5-0.7,1.5-1.5V84.1c0-5.2,4.2-9.4,9.4-9.4
		s9.4,4.2,9.4,9.4V95c0,0.8,0.7,1.5,1.5,1.5s1.5-0.7,1.5-1.5V84.1C93.1,77.3,87.6,71.7,80.7,71.7z"/>
	<path d="M58,59.8c0-4.4-3.6-8-8-8s-8,3.6-8,8s3.6,8,8,8S58,64.2,58,59.8z M45,59.8c0-2.7,2.2-5,5-5s5,2.2,5,5s-2.2,5-5,5
		S45,62.6,45,59.8z"/>
	<path d="M50,71.7c-6.8,0-12.4,5.6-12.4,12.4V95c0,0.8,0.7,1.5,1.5,1.5s1.5-0.7,1.5-1.5V84.1c0-5.2,4.2-9.4,9.4-9.4s9.4,4.2,9.4,9.4
		V95c0,0.8,0.7,1.5,1.5,1.5s1.5-0.7,1.5-1.5V84.1C62.4,77.3,56.8,71.7,50,71.7z"/>
</g>
</svg>
