<?xml version="1.0" encoding="utf-8"?>
<!-- Generator: Adobe Illustrator 24.3.0, SVG Export Plug-In . SVG Version: 6.00 Build 0)  -->
<svg version="1.1" id="Layer_1" xmlns="http://www.w3.org/2000/svg" xmlns:xlink="http://www.w3.org/1999/xlink" x="0px" y="0px"
	 viewBox="0 0 100 100.3" style="enable-background:new 0 0 100 100.3;" xml:space="preserve">
<g>
	<path d="M50.5,28.4h21v8.9l-1-1.8c-0.4-0.7-1.3-1-2.1-0.5s-1,1.3-0.6,2l5.1,8.9l5.1-8.9c0.4-0.7,0.2-1.6-0.6-2
		c-0.7-0.4-1.6-0.2-2.1,0.5l-1,1.8V25.4h-24C49.7,13.1,39.5,3.2,27,3.2c-13,0-23.6,10.6-23.6,23.6S13.9,50.5,27,50.5
		C39.5,50.5,49.7,40.7,50.5,28.4z M19.5,46.1C19.5,46,19.5,46,19.5,46.1l0-9c0-4.1,3.4-7.5,7.5-7.5s7.5,3.4,7.5,7.5V46
		c0,0,0,0,0,0.1c-2.3,0.9-4.9,1.4-7.5,1.4S21.8,47,19.5,46.1z M6.3,26.9c0-11.4,9.2-20.6,20.6-20.6s20.6,9.2,20.6,20.6
		c0,7.5-4.1,14.1-10.1,17.7V37c0-5.8-4.7-10.5-10.5-10.5S16.5,31.3,16.5,37v7.5C10.4,41,6.3,34.4,6.3,26.9z"/>
	<path d="M27,23.8c3.8,0,6.8-3.1,6.8-6.8s-3.1-6.8-6.8-6.8s-6.8,3.1-6.8,6.8C20.1,20.8,23.2,23.8,27,23.8z M27,13.1
		c2.1,0,3.8,1.7,3.8,3.8s-1.7,3.8-3.8,3.8s-3.8-1.7-3.8-3.8C23.1,14.9,24.8,13.1,27,13.1z"/>
	<path d="M73.1,49.5c-12.5,0-22.8,9.8-23.6,22.1H28.3v-8.9l1,1.8c0.3,0.5,0.8,0.8,1.3,0.8c0.2,0,0.5-0.1,0.8-0.2
		c0.7-0.4,1-1.3,0.5-2l-5.1-8.9L21.7,63c-0.4,0.7-0.2,1.6,0.5,2s1.6,0.2,2-0.6l1-1.8v11.9h24.2c0.8,12.3,11,22.1,23.6,22.1
		c13,0,23.6-10.6,23.6-23.6S86.1,49.5,73.1,49.5z M65.6,92.3C65.6,92.3,65.6,92.3,65.6,92.3l0-9c0-4.1,3.4-7.5,7.5-7.5
		s7.5,3.4,7.5,7.5v8.9c0,0,0,0,0,0.1c-2.3,0.9-4.8,1.4-7.5,1.4S67.9,93.2,65.6,92.3z M83.5,90.8v-7.5c0-5.8-4.7-10.5-10.5-10.5
		s-10.5,4.7-10.5,10.5v7.6c-6.1-3.6-10.1-10.2-10.1-17.7c0-11.4,9.2-20.6,20.6-20.6s20.6,9.2,20.6,20.6
		C93.7,80.7,89.6,87.2,83.5,90.8z"/>
	<path d="M73.1,56.4c-3.8,0-6.8,3.1-6.8,6.8s3.1,6.8,6.8,6.8s6.8-3.1,6.8-6.8S76.8,56.4,73.1,56.4z M73.1,67.1
		c-2.1,0-3.8-1.7-3.8-3.8s1.7-3.8,3.8-3.8s3.8,1.7,3.8,3.8C76.9,65.3,75.2,67.1,73.1,67.1z"/>
</g>
</svg>
