<?xml version="1.0" encoding="utf-8"?>
<!-- Generator: Adobe Illustrator 24.3.0, SVG Export Plug-In . SVG Version: 6.00 Build 0)  -->
<svg version="1.1" id="Layer_1" xmlns="http://www.w3.org/2000/svg" xmlns:xlink="http://www.w3.org/1999/xlink" x="0px" y="0px"
	 viewBox="0 0 100 100.4" style="enable-background:new 0 0 100 100.4;" xml:space="preserve">
<g>
	<path d="M96.4,39.4c-0.2-0.5-0.7-0.9-1.2-1L64.9,34L51.3,6.5C51.1,6,50.6,5.7,50,5.7S48.9,6,48.7,6.5L35.1,34L4.8,38.4
		c-0.6,0.1-1,0.5-1.2,1s0,1.1,0.4,1.5l21.9,21.4l-5.2,30.2c-0.1,0.6,0.1,1.1,0.6,1.5c0.5,0.3,1.1,0.4,1.6,0.1L50,79.9l27.1,14.2
		c0.2,0.1,0.5,0.2,0.7,0.2c0.3,0,0.6-0.1,0.9-0.3c0.5-0.3,0.7-0.9,0.6-1.5l-5.2-30.2L96,41C96.5,40.6,96.6,40,96.4,39.4z M50,76.7
		c-0.2,0-0.5,0.1-0.7,0.2l-10.2,5.4V70.7c0-6,4.9-10.9,10.9-10.9s10.9,4.9,10.9,10.9v11.6l-10.2-5.4C50.5,76.7,50.2,76.7,50,76.7z
		 M71.4,60.8c-0.3,0.3-0.5,0.8-0.4,1.3l4.8,28l-12.1-6.4c0.1-0.2,0.2-0.4,0.2-0.7V70.7c0-7.7-6.2-13.9-13.9-13.9S36.1,63,36.1,70.7
		V83c0,0.2,0.1,0.5,0.2,0.7l-12.1,6.4l4.8-28c0.1-0.5-0.1-1-0.4-1.3L8.2,40.9l28.1-4.1c0.5-0.1,0.9-0.4,1.1-0.8L50,10.6L62.6,36
		c0.2,0.4,0.6,0.8,1.1,0.8l28.1,4.1L71.4,60.8z"/>
	<path d="M50,34.1c-4.9,0-8.9,4-8.9,8.9s4,8.9,8.9,8.9s8.9-4,8.9-8.9S54.9,34.1,50,34.1z M50,48.8c-3.2,0-5.9-2.6-5.9-5.9
		s2.6-5.9,5.9-5.9s5.9,2.6,5.9,5.9S53.2,48.8,50,48.8z"/>
</g>
</svg>
