<?xml version="1.0" encoding="utf-8"?>
<!-- Generator: Adobe Illustrator 24.3.0, SVG Export Plug-In . SVG Version: 6.00 Build 0)  -->
<svg version="1.1" id="Layer_1" xmlns="http://www.w3.org/2000/svg" xmlns:xlink="http://www.w3.org/1999/xlink" x="0px" y="0px"
	 viewBox="0 0 100 97.1" style="enable-background:new 0 0 100 97.1;" xml:space="preserve">
<path d="M84.4,20.1H64.5v-7.4c0-2-1.6-3.7-3.7-3.7H39.1c-2,0-3.7,1.6-3.7,3.7v7.4H15.6c-6.6,0-12.1,5.4-12.1,12.1v46.8
	C3.5,85.6,8.9,91,15.6,91h68.9c6.6,0,12.1-5.4,12.1-12.1V32.2C96.5,25.5,91.1,20.1,84.4,20.1z M38.5,12.7c0-0.4,0.3-0.7,0.7-0.7
	h21.7c0.4,0,0.7,0.3,0.7,0.7v7.4h-23V12.7z M93.5,78.9c0,5-4.1,9.1-9.1,9.1H15.5c-5,0-9.1-4.1-9.1-9.1V32.2c0-5,4.1-9,9.1-9H37h26
	h21.4c5,0,9.1,4.1,9.1,9L93.5,78.9L93.5,78.9z"/>
</svg>
