<?xml version="1.0" encoding="utf-8"?>
<!-- Generator: Adobe Illustrator 24.3.0, SVG Export Plug-In . SVG Version: 6.00 Build 0)  -->
<svg version="1.1" id="Layer_1" xmlns="http://www.w3.org/2000/svg" xmlns:xlink="http://www.w3.org/1999/xlink" x="0px" y="0px"
	 viewBox="0 0 100 99.5" style="enable-background:new 0 0 100 99.5;" xml:space="preserve">
<g>
	<path d="M50,41.3c-1.6,0-2.9-1.3-2.9-2.9c0-0.8-0.7-1.5-1.5-1.5s-1.5,0.7-1.5,1.5c0,2.8,1.9,5.1,4.4,5.7v1.6c0,0.8,0.7,1.5,1.5,1.5
		s1.5-0.7,1.5-1.5v-1.6c2.5-0.7,4.4-3,4.4-5.7c0-3.3-2.7-5.9-5.9-5.9c-1.6,0-2.9-1.3-2.9-2.9s1.3-2.9,2.9-2.9s2.9,1.3,2.9,2.9
		c0,0.8,0.7,1.5,1.5,1.5s1.5-0.7,1.5-1.5c0-2.8-1.9-5.1-4.4-5.7v-1.6c0-0.8-0.7-1.5-1.5-1.5s-1.5,0.7-1.5,1.5v1.6
		c-2.5,0.7-4.4,3-4.4,5.7c0,3.3,2.7,5.9,5.9,5.9c1.6,0,2.9,1.3,2.9,2.9S51.6,41.3,50,41.3z"/>
	<path d="M82.3,23.3C82.3,23.3,82.3,23.3,82.3,23.3c0-0.1-0.1-0.2-0.1-0.4c0,0,0-0.1-0.1-0.1c-0.1-0.1-0.1-0.2-0.2-0.3L63.3,3.9
		c-0.1-0.1-0.2-0.2-0.3-0.2c0,0-0.1,0-0.1,0c-0.1-0.1-0.2-0.1-0.4-0.1h0c-0.1,0-0.2,0-0.3,0H19.2c-0.8,0-1.5,0.7-1.5,1.5v90
		c0,0.8,0.7,1.5,1.5,1.5h61.7c0.8,0,1.5-0.7,1.5-1.5V23.6C82.3,23.5,82.3,23.4,82.3,23.3z M77.2,22.1H63.8V8.6L77.2,22.1z
		 M20.7,93.5v-87h40.1v17.1c0,0.8,0.7,1.5,1.5,1.5h17.1v68.4H20.7z"/>
	<path d="M68.4,76.1H31.6c-0.8,0-1.5,0.7-1.5,1.5s0.7,1.5,1.5,1.5h36.8c0.8,0,1.5-0.7,1.5-1.5S69.2,76.1,68.4,76.1z"/>
	<path d="M68.4,66.1H31.6c-0.8,0-1.5,0.7-1.5,1.5s0.7,1.5,1.5,1.5h36.8c0.8,0,1.5-0.7,1.5-1.5S69.2,66.1,68.4,66.1z"/>
	<path d="M68.4,56.1H31.6c-0.8,0-1.5,0.7-1.5,1.5s0.7,1.5,1.5,1.5h36.8c0.8,0,1.5-0.7,1.5-1.5S69.2,56.1,68.4,56.1z"/>
</g>
</svg>
